<?xml version="1.0" encoding="utf-8"?>
<!-- Generator: Adobe Illustrator 25.0.1, SVG Export Plug-In . SVG Version: 6.00 Build 0)  -->
<svg version="1.1" id="Layer_1" xmlns="http://www.w3.org/2000/svg" xmlns:xlink="http://www.w3.org/1999/xlink" x="0px" y="0px"
	 viewBox="0 0 41.7 41.7" style="enable-background:new 0 0 41.7 41.7;" xml:space="preserve">
<style type="text/css">
	.st0{fill:#E8E5E2;}
	.st1{fill:url(#SVGID_1_);}
</style>
<circle class="st0" cx="20.9" cy="20.9" r="20.7"/>
<g>
	<linearGradient id="SVGID_1_" gradientUnits="userSpaceOnUse" x1="11.749" y1="20.8852" x2="31.552" y2="20.8852">
		<stop  offset="0" style="stop-color:#5C2D90"/>
		<stop  offset="1" style="stop-color:#EB008B"/>
	</linearGradient>
	<path class="st1" d="M29.7,13c-0.9-0.4-1.9-0.3-2.7,0.2c-0.5-1.2-1.3-1.8-2.5-2c-1.2-0.2-2.3,0.3-3,1.3c-1.1-0.8-2.2-1-3.4-0.4
		l0-2.8c0-1.4-0.8-2.6-2.2-3c-0.8-0.3-1.7-0.2-2.5,0.2c-0.8,0.4-1.3,1.1-1.5,1.9c-0.1,0.3-0.1,0.6-0.1,0.8c0,1.5,0,3,0,4.4
		c0,3.7,0,7.5,0,11.3c0.1,4.1,1.9,7.2,5.4,9.2c1.4,0.8,2.8,1.2,4.3,1.2c0.6,0,1.2-0.1,1.8-0.2c3.2-0.6,5.5-2.5,7.1-5.5
		c0.7-1.5,1.1-3.1,1.1-5c0-1.3,0-2.6,0-3.8c0-1.7,0-3.4,0-5.1C31.5,14.6,30.9,13.6,29.7,13z M25.5,19.7l-2.8,0c0,0,0,0,0,0
		c0,0,0,0,0,0c0,0,0,0,0,0l0-0.9c0-1.5,0-2.9,0-4.4c0-0.2,0-0.4,0.1-0.6c0.3-0.7,0.9-1,1.7-0.9c0.6,0.1,1.1,0.7,1.1,1.4
		c0,0.6,0,1.2,0,1.8L25.5,19.7z M27.3,18.8c0-0.9,0-1.8,0-2.7c0-0.2,0-0.5,0.1-0.7c0.1-0.3,0.4-0.6,0.7-0.7c0.3-0.1,0.7-0.1,0.9,0
		c0.5,0.3,0.7,0.7,0.7,1.3c0,1.3,0,2.5,0,3.8l0,0.3c-0.4-0.2-0.8-0.3-1.3-0.3c0,0,0,0-0.1,0c-0.2,0-0.5,0-0.7,0c-0.2,0-0.3,0-0.5,0
		L27.3,18.8z M13.5,11.1c0-0.6,0-1.2,0-1.8C13.5,8.6,14,8,14.8,8c0,0,0.1,0,0.1,0c0.6,0,1.2,0.5,1.4,1.1c0,0.2,0.1,0.3,0.1,0.5l0,4
		c0,2.1,0,4.1,0,6.2c0,1.5,1.1,2.8,2.6,3c0,0.5,0.1,1,0.3,1.4c0.6,1.1,1.4,1.7,2.7,1.7c-0.9,1-1.3,2.1-1.2,3.3
		c0.1,0.5,0.4,0.9,0.9,0.8c0.2,0,0.5-0.1,0.6-0.3c0.2-0.2,0.2-0.4,0.2-0.7c-0.1-0.8,0.2-1.5,0.9-2.3c0.5-0.5,1.2-0.9,1.9-1.3
		c0.2-0.1,0.4-0.2,0.6-0.4l0.3-0.2c0.2-0.1,0.2-0.3,0.2-0.4l0-0.1c-0.1-0.1-0.2-0.2-0.3-0.2l-1.4,0c-0.8,0-1.7,0-2.5,0
		c-0.7,0-1.3-0.5-1.4-1.1c-0.1-0.5,0-0.9,0.3-1.2c0.3-0.3,0.7-0.5,1.1-0.5c1.2,0,2.5,0,3.7,0l2.8,0c0,0,0,0,0,0
		c0.3,0,0.5,0.1,0.7,0.3c0.4,0.6,0.6,1.1,0.6,1.6c0,0.3,0,0.7,0,1c0,0.9,0,1.7-0.2,2.6c-0.4,1.9-1.3,3.5-2.6,4.7
		c-2.1,1.9-4.5,2.6-7.2,1.9c-1.8-0.4-3.3-1.5-4.6-3.1c-1.2-1.6-1.8-3.5-1.8-5.6c0,0,0,0,0,0l0-13.2L13.5,11.1z M19.5,13.6
		C19.5,13.6,19.5,13.6,19.5,13.6c0.8,0,1.4,0.7,1.4,1.4c0,1.3,0,2.5,0,3.8l0,0.9c0,0,0,0,0,0c0,0,0,0.1,0,0.1c0,0,0,0.1,0,0.1
		c-0.6,0.3-1.1,0.7-1.4,1.2c-0.3,0-0.7-0.1-1-0.4c-0.3-0.3-0.4-0.6-0.4-1c0-0.2,0-0.4,0-0.6c0-0.4,0-0.7,0-1.1l0-0.8l0-0.8
		c0-0.4,0-0.7,0-1.1c0-0.2,0-0.4,0-0.6C18,14.2,18.7,13.6,19.5,13.6z"/>
</g>
</svg>
